<?xml version="1.0" encoding="utf-8"?>
<!-- Generator: Adobe Illustrator 26.0.1, SVG Export Plug-In . SVG Version: 6.00 Build 0)  -->
<svg version="1.1" id="Слой_1" xmlns="http://www.w3.org/2000/svg" xmlns:xlink="http://www.w3.org/1999/xlink" x="0px" y="0px"
	 viewBox="0 0 24 24" style="enable-background:new 0 0 24 24;" xml:space="preserve">
<style type="text/css">
	.st0{fill:#FFFFFF;}
</style>
<path d="M4,4v18h16v2H4c-1.1,0-2-0.9-2-2V4H4 M15,7h5.5L15,1.5V7 M8,0h8l6,6v12c0,1.1-0.9,2-2,2H8c-1.1,0-2-0.9-2-2V2
	C6,0.9,6.9,0,8,0 M17,16v-2H8v2H17 M20,12v-2H8v2H20z"/>
<path class="st0" d="M13.5,22.5c-0.4,0-0.9-0.1-1.3-0.2c-0.1,0-0.4-0.1-0.4-0.2c-1.3-0.6-2.3-2.1-2.3-3.7c0-2.2,1.7-4.1,3.9-4.1
	c2.1,0,3.9,1.8,3.9,4h1.4c0-3-2.4-5.5-5.3-5.5c-2.9,0-5.3,2.5-5.3,5.5c0,2.1,1.1,3.9,2.8,4.9c0.3,0.2,0.7,0.3,0.9,0.4
	c0.5,0.1,1.1,0.2,1.6,0.3c0.2,0,0.8,0,1,0H24v-1.5h-9.7C14.2,22.5,13.6,22.5,13.5,22.5z M14.3,20.2c-0.1,0-0.6,0-0.7,0
	c-0.2,0-0.4,0-0.6-0.1c-0.2,0-0.3-0.1-0.4-0.2c-0.5-0.3-0.9-0.9-0.9-1.5c0-1,0.8-1.7,1.7-1.7c0.9,0,1.6,0.8,1.7,1.7h1.4
	c0-1.7-1.4-3.1-3-3.1c-1.7,0-3,1.4-3,3.2c0,1.2,0.7,2.3,1.7,2.8c0.2,0.1,0.4,0.2,0.5,0.2c0.3,0.1,0.7,0.1,1,0.2c0.1,0,0.7,0,0.8,0v0
	H24v-1.4H14.3z M7.2,24H5.8v-9.6H3.7v-1.5h3.5V24z M2.2,15.1v1.4h1.6V24h1.4v-8.9H2.2z"/>
</svg>
